<svg width="30" height="27" viewBox="0 0 30 27" fill="none" xmlns="http://www.w3.org/2000/svg">
<path d="M2.69333 27C1.92556 27 1.285 26.7401 0.771667 26.2204C0.258333 25.7006 0.00111111 25.0515 0 24.273V7.7895C0 7.01213 0.257222 6.36356 0.771667 5.84381C1.28611 5.32406 1.92611 5.06363 2.69167 5.0625H10V2.72532C10 1.94907 10.2572 1.3005 10.7717 0.779628C11.2861 0.258753 11.9267 -0.00112136 12.6933 3.63686e-06H17.3083C18.075 3.63686e-06 18.7156 0.259878 19.23 0.779628C19.7444 1.29938 20.0011 1.94794 20 2.72532V5.0625H27.3083C28.075 5.0625 28.715 5.32294 29.2283 5.84381C29.7417 6.36469 29.9989 7.01325 30 7.7895V24.2747C30 25.0509 29.7428 25.6995 29.2283 26.2204C28.7139 26.7412 28.0739 27.0011 27.3083 27H2.69333ZM11.6667 5.0625H18.3333V2.72532C18.3333 2.46657 18.2267 2.22863 18.0133 2.0115C17.8 1.79438 17.565 1.68638 17.3083 1.6875H12.6917C12.4361 1.6875 12.2011 1.7955 11.9867 2.0115C11.7722 2.2275 11.6656 2.46544 11.6667 2.72532V5.0625ZM28.3333 17.7188H18.3333V18.8865C18.3333 19.278 18.2056 19.6031 17.95 19.8619C17.6944 20.1206 17.3733 20.25 16.9867 20.25H13.0133C12.6267 20.25 12.3056 20.1206 12.05 19.8619C11.7944 19.6031 11.6667 19.278 11.6667 18.8865V17.7188H1.66667V24.2747C1.66667 24.5334 1.77333 24.7714 1.98667 24.9885C2.2 25.2056 2.435 25.3136 2.69167 25.3125H27.3083C27.5639 25.3125 27.7989 25.2045 28.0133 24.9885C28.2278 24.7725 28.3344 24.534 28.3333 24.273V17.7188ZM13.3333 18.5625H16.6667V15.1875H13.3333V18.5625ZM1.66667 16.0312H11.6667V14.8635C11.6667 14.472 11.7944 14.1469 12.05 13.8881C12.3056 13.6294 12.6267 13.5 13.0133 13.5H16.9867C17.3733 13.5 17.6944 13.6294 17.95 13.8881C18.2056 14.1469 18.3333 14.472 18.3333 14.8635V16.0312H28.3333V7.7895C28.3333 7.52963 28.2267 7.29113 28.0133 7.074C27.8 6.85688 27.565 6.74888 27.3083 6.75H2.69167C2.43611 6.75 2.20111 6.858 1.98667 7.074C1.77222 7.29 1.66556 7.5285 1.66667 7.7895V16.0312Z" fill="black"/>
<path d="M2.69333 27C1.92556 27 1.285 26.7401 0.771667 26.2204C0.258333 25.7006 0.00111111 25.0515 0 24.273V7.7895C0 7.01213 0.257222 6.36356 0.771667 5.84381C1.28611 5.32406 1.92611 5.06363 2.69167 5.0625H10V2.72532C10 1.94907 10.2572 1.3005 10.7717 0.779628C11.2861 0.258753 11.9267 -0.00112136 12.6933 3.63686e-06H17.3083C18.075 3.63686e-06 18.7156 0.259878 19.23 0.779628C19.7444 1.29938 20.0011 1.94794 20 2.72532V5.0625H27.3083C28.075 5.0625 28.715 5.32294 29.2283 5.84381C29.7417 6.36469 29.9989 7.01325 30 7.7895V24.2747C30 25.0509 29.7428 25.6995 29.2283 26.2204C28.7139 26.7412 28.0739 27.0011 27.3083 27H2.69333ZM11.6667 5.0625H18.3333V2.72532C18.3333 2.46657 18.2267 2.22863 18.0133 2.0115C17.8 1.79438 17.565 1.68638 17.3083 1.6875H12.6917C12.4361 1.6875 12.2011 1.7955 11.9867 2.0115C11.7722 2.2275 11.6656 2.46544 11.6667 2.72532V5.0625ZM28.3333 17.7188H18.3333V18.8865C18.3333 19.278 18.2056 19.6031 17.95 19.8619C17.6944 20.1206 17.3733 20.25 16.9867 20.25H13.0133C12.6267 20.25 12.3056 20.1206 12.05 19.8619C11.7944 19.6031 11.6667 19.278 11.6667 18.8865V17.7188H1.66667V24.2747C1.66667 24.5334 1.77333 24.7714 1.98667 24.9885C2.2 25.2056 2.435 25.3136 2.69167 25.3125H27.3083C27.5639 25.3125 27.7989 25.2045 28.0133 24.9885C28.2278 24.7725 28.3344 24.534 28.3333 24.273V17.7188ZM13.3333 18.5625H16.6667V15.1875H13.3333V18.5625ZM1.66667 16.0312H11.6667V14.8635C11.6667 14.472 11.7944 14.1469 12.05 13.8881C12.3056 13.6294 12.6267 13.5 13.0133 13.5H16.9867C17.3733 13.5 17.6944 13.6294 17.95 13.8881C18.2056 14.1469 18.3333 14.472 18.3333 14.8635V16.0312H28.3333V7.7895C28.3333 7.52963 28.2267 7.29113 28.0133 7.074C27.8 6.85688 27.565 6.74888 27.3083 6.75H2.69167C2.43611 6.75 2.20111 6.858 1.98667 7.074C1.77222 7.29 1.66556 7.5285 1.66667 7.7895V16.0312Z" fill="url(#paint0_linear_1647_33404)"/>
<defs>
<linearGradient id="paint0_linear_1647_33404" x1="0" y1="13.5" x2="30" y2="13.5" gradientUnits="userSpaceOnUse">
<stop stop-color="#D4A850"/>
<stop offset="1" stop-color="#F6C259"/>
</linearGradient>
</defs>
</svg>
