<svg width="31" height="33" viewBox="0 0 31 33" fill="none" xmlns="http://www.w3.org/2000/svg">
<path d="M31 8.91293C30.5613 8.91293 30.1213 9.00528 29.7507 9.23615C27.6667 10.5396 27.6667 12.3166 27.6667 13.5303V14.19H21.6667M11 18.1478H31M21 18.1478V32M15 31.3404C13.6667 31.3404 12.6667 29.3615 12.6667 29.3615C11.6667 27.3826 11.6667 26.0633 11.6667 24.0844V22.1055H1V21.7757L3.56267 11.8879C3.78318 11.0368 4.28362 10.2825 4.98514 9.74391C5.68666 9.20529 6.54938 8.91294 7.43733 8.91293H9L10.9293 12.7309C11.1508 13.1695 11.4915 13.5383 11.9131 13.7961C12.3346 14.0538 12.8204 14.1902 13.316 14.19H19M8.8 6.27441C8.8 6.27441 6.66667 4.95515 6.66667 3.30607C6.66667 3.00323 6.72695 2.70336 6.84408 2.42357C6.96121 2.14379 7.13288 1.88957 7.3493 1.67543C7.56573 1.46129 7.82266 1.29143 8.10543 1.17554C8.3882 1.05965 8.69127 1 8.99733 1C9.3034 1 9.60647 1.05965 9.88924 1.17554C10.172 1.29143 10.4289 1.46129 10.6454 1.67543C10.8618 1.88957 11.0335 2.14379 11.1506 2.42357C11.2677 2.70336 11.328 3.00323 11.328 3.30607C11.328 4.95515 9.2 6.27441 9.2 6.27441H8.8Z" stroke="url(#paint0_linear_1647_33407)" stroke-width="2"/>
<defs>
<linearGradient id="paint0_linear_1647_33407" x1="1" y1="16.5" x2="31" y2="16.5" gradientUnits="userSpaceOnUse">
<stop stop-color="#D4A850"/>
<stop offset="1" stop-color="#C08000"/>
</linearGradient>
</defs>
</svg>
