<svg width="18" height="18" viewBox="0 0 18 18" fill="none" xmlns="http://www.w3.org/2000/svg">
<path d="M6.83466 10.5497H1.61417C1.45149 10.5503 1.29566 10.6152 1.18062 10.7303C1.06558 10.8453 1.00066 11.0011 1 11.1637V16.3859C1 16.7257 1.27562 17 1.61417 17H6.83717C7.17698 17 7.45135 16.7244 7.45135 16.3859V11.1637C7.45069 11.0011 7.38577 10.8453 7.27073 10.7303C7.15569 10.6152 6.99986 10.5503 6.83717 10.5497M6.83466 1.00126H1.61417C1.45149 1.00192 1.29566 1.06683 1.18062 1.18185C1.06558 1.29687 1.00066 1.45268 1 1.61534V6.83751C1 7.17727 1.27562 7.45159 1.61417 7.45159H6.83717C7.17698 7.45159 7.45135 7.17601 7.45135 6.83751V1.61408C7.45069 1.45142 7.38577 1.29561 7.27073 1.18059C7.15569 1.06557 6.99986 1.00066 6.83717 1M16.3858 10.5497H11.1628C11.0001 10.5503 10.8443 10.6152 10.7293 10.7303C10.6142 10.8453 10.5493 11.0011 10.5487 11.1637V16.3859C10.5487 16.7257 10.823 17 11.1628 17H16.3858C16.7256 17 17 16.7244 17 16.3859V11.1637C16.9993 11.0011 16.9344 10.8453 16.8194 10.7303C16.7043 10.6152 16.5485 10.5503 16.3858 10.5497ZM10.4417 4.70208C10.0628 4.63665 10.0628 4.0943 10.4417 4.02761C11.1116 3.91112 11.7316 3.59781 12.2227 3.12763C12.7138 2.65744 13.0537 2.05168 13.1992 1.38757L13.2218 1.28313C13.3036 0.909398 13.836 0.905623 13.9216 1.27936L13.9493 1.40142C14.1002 2.06268 14.4431 2.66462 14.9351 3.13164C15.427 3.59865 16.046 3.90992 16.7143 4.02635C17.0944 4.09178 17.0944 4.63791 16.7143 4.7046C16.046 4.82103 15.427 5.13229 14.9351 5.59931C14.4431 6.06633 14.1002 6.66827 13.9493 7.32953L13.9216 7.45033C13.836 7.82407 13.3049 7.82155 13.2218 7.44782L13.1992 7.34337C13.054 6.67904 12.7141 6.073 12.223 5.60258C11.7319 5.13215 11.1117 4.81866 10.4417 4.70208Z" stroke="black" stroke-linecap="round" stroke-linejoin="round"/>
<path d="M6.83466 10.5497H1.61417C1.45149 10.5503 1.29566 10.6152 1.18062 10.7303C1.06558 10.8453 1.00066 11.0011 1 11.1637V16.3859C1 16.7257 1.27562 17 1.61417 17H6.83717C7.17698 17 7.45135 16.7244 7.45135 16.3859V11.1637C7.45069 11.0011 7.38577 10.8453 7.27073 10.7303C7.15569 10.6152 6.99986 10.5503 6.83717 10.5497M6.83466 1.00126H1.61417C1.45149 1.00192 1.29566 1.06683 1.18062 1.18185C1.06558 1.29687 1.00066 1.45268 1 1.61534V6.83751C1 7.17727 1.27562 7.45159 1.61417 7.45159H6.83717C7.17698 7.45159 7.45135 7.17601 7.45135 6.83751V1.61408C7.45069 1.45142 7.38577 1.29561 7.27073 1.18059C7.15569 1.06557 6.99986 1.00066 6.83717 1M16.3858 10.5497H11.1628C11.0001 10.5503 10.8443 10.6152 10.7293 10.7303C10.6142 10.8453 10.5493 11.0011 10.5487 11.1637V16.3859C10.5487 16.7257 10.823 17 11.1628 17H16.3858C16.7256 17 17 16.7244 17 16.3859V11.1637C16.9993 11.0011 16.9344 10.8453 16.8194 10.7303C16.7043 10.6152 16.5485 10.5503 16.3858 10.5497ZM10.4417 4.70208C10.0628 4.63665 10.0628 4.0943 10.4417 4.02761C11.1116 3.91112 11.7316 3.59781 12.2227 3.12763C12.7138 2.65744 13.0537 2.05168 13.1992 1.38757L13.2218 1.28313C13.3036 0.909398 13.836 0.905623 13.9216 1.27936L13.9493 1.40142C14.1002 2.06268 14.4431 2.66462 14.9351 3.13164C15.427 3.59865 16.046 3.90992 16.7143 4.02635C17.0944 4.09178 17.0944 4.63791 16.7143 4.7046C16.046 4.82103 15.427 5.13229 14.9351 5.59931C14.4431 6.06633 14.1002 6.66827 13.9493 7.32953L13.9216 7.45033C13.836 7.82407 13.3049 7.82155 13.2218 7.44782L13.1992 7.34337C13.054 6.67904 12.7141 6.073 12.223 5.60258C11.7319 5.13215 11.1117 4.81866 10.4417 4.70208Z" stroke="url(#paint0_linear_1647_32001)" stroke-linecap="round" stroke-linejoin="round"/>
<defs>
<linearGradient id="paint0_linear_1647_32001" x1="1" y1="9" x2="17" y2="9" gradientUnits="userSpaceOnUse">
<stop stop-color="#D4A850"/>
<stop offset="1" stop-color="#C08000"/>
</linearGradient>
</defs>
</svg>
