<svg width="36" height="36" viewBox="0 0 36 36" fill="none" xmlns="http://www.w3.org/2000/svg">
<rect width="36" height="36" rx="18" fill="#D4A850" fill-opacity="0.2"/>
<path d="M25.8683 20.0922C25.5234 19.0387 23.5444 15.5232 22.7766 14.3151C22.0006 13.015 21.1015 12.4758 19.7589 12.5008C16.6028 12.5391 13.4508 12.7442 10.3156 13.1153C10.2483 13.1267 10.1853 13.1564 10.1332 13.2013C10.0812 13.2462 10.042 13.3046 10.02 13.3703C10.004 13.4178 9.9975 13.468 10.0009 13.5181C10.0042 13.5681 10.0174 13.617 10.0396 13.6618C10.0618 13.7066 10.0925 13.7464 10.1301 13.7789C10.1676 13.8114 10.2111 13.8359 10.2581 13.8511C10.8206 13.8845 12.8776 13.9681 13.826 14.0559C14.1547 14.085 14.4693 14.2052 14.7357 14.4034C15.002 14.6016 15.21 14.8703 15.337 15.1804C15.7475 15.9704 16.6795 18.3741 17.0326 19.2979C17.1382 19.5229 17.1957 19.7682 17.2014 20.0175C17.2071 20.2668 17.1607 20.5145 17.0655 20.7443C16.9089 20.9385 16.6998 21.0816 16.464 21.1559C16.2283 21.2302 15.9763 21.2325 15.7393 21.1623C15.1193 21.0494 11.1819 20.18 10.7919 20.0922C10.2992 19.9751 10.1349 20.9282 10.6646 21.0996C11.3708 21.3755 14.717 22.5334 17.4104 23.2775C18.4482 23.5742 19.5463 23.5742 20.5841 23.2775C21.8775 23.0225 23.6799 22.6463 24.772 22.3411C24.8558 22.3186 24.9381 22.2907 25.0184 22.2575C25.214 22.1724 25.3912 22.0488 25.5398 21.8938C25.6884 21.7388 25.8056 21.5555 25.8845 21.3544C25.9634 21.1532 26.0026 20.9382 25.9999 20.7216C25.9971 20.505 25.9524 20.2911 25.8683 20.0922ZM20.0093 22.2241C19.7861 22.2291 19.5701 22.1436 19.4088 21.9864C19.2474 21.8292 19.1541 21.6132 19.1492 21.386C19.1443 21.1587 19.2282 20.9387 19.3826 20.7745C19.537 20.6103 19.7491 20.5152 19.9724 20.5102C20.1956 20.5074 20.4108 20.595 20.5705 20.7538C20.7303 20.9125 20.8216 21.1294 20.8243 21.3567C20.827 21.584 20.741 21.803 20.5851 21.9657C20.4291 22.1284 20.2161 22.2213 19.9929 22.2241H20.0093ZM23.0558 18.4995C22.4769 18.65 20.4528 18.951 19.6398 19.0429C18.7489 19.1725 18.2479 19.0011 17.9605 18.3365C17.7224 17.9184 16.7288 15.3392 16.581 14.963C16.2813 14.1688 16.6713 13.9388 17.1435 13.8929C17.5335 13.8427 19.3811 13.6838 20.0463 13.6253C21.0481 13.5459 21.5654 13.9388 22.0663 14.8251C22.6329 15.7949 23.142 16.6936 23.5772 17.4879C23.8236 17.9393 23.6306 18.3532 23.0558 18.5037V18.4995ZM24.4066 21.2626C24.2554 21.2634 24.1073 21.2182 23.9814 21.1328C23.8556 21.0473 23.7576 20.9256 23.7002 20.7831C23.6427 20.6407 23.6283 20.484 23.6589 20.3331C23.6894 20.1823 23.7635 20.0442 23.8716 19.9365C23.9798 19.8288 24.117 19.7564 24.2658 19.7286C24.4146 19.7009 24.5681 19.7189 24.7067 19.7806C24.8454 19.8422 24.9628 19.9446 25.0439 20.0746C25.125 20.2046 25.1662 20.3562 25.1621 20.5102C25.1588 20.712 25.0778 20.9044 24.9365 21.046C24.7952 21.1875 24.6049 21.2668 24.4066 21.2668V21.2626Z" stroke="#D4A850" stroke-linecap="round" stroke-linejoin="round"/>
</svg>
