<svg width="36" height="36" viewBox="0 0 36 36" fill="none" xmlns="http://www.w3.org/2000/svg">
<rect width="36" height="36" rx="18" fill="#D4A850" fill-opacity="0.2"/>
<path d="M11.4364 25C11.027 25 10.6853 24.8652 10.4116 24.5957C10.1378 24.3262 10.0006 23.9897 10 23.586V15.039C10 14.6359 10.1372 14.2996 10.4116 14.0301C10.6859 13.7606 11.0273 13.6256 11.4356 13.625H15.3333V12.4131C15.3333 12.0106 15.4705 11.6743 15.7449 11.4043C16.0193 11.1342 16.3609 10.9994 16.7698 11H19.2311C19.64 11 19.9816 11.1348 20.256 11.4043C20.5304 11.6738 20.6673 12.01 20.6667 12.4131V13.625H24.5644C24.9733 13.625 25.3147 13.76 25.5884 14.0301C25.8622 14.3002 25.9994 14.6365 26 15.039V23.5869C26 23.9894 25.8628 24.3257 25.5884 24.5957C25.3141 24.8658 24.9727 25.0006 24.5644 25H11.4364ZM16.2222 13.625H19.7778V12.4131C19.7778 12.279 19.7209 12.1556 19.6071 12.043C19.4933 11.9304 19.368 11.8744 19.2311 11.875H16.7689C16.6326 11.875 16.5073 11.931 16.3929 12.043C16.2785 12.155 16.2216 12.2784 16.2222 12.4131V13.625ZM25.1111 20.1875H19.7778V20.793C19.7778 20.996 19.7096 21.1646 19.5733 21.2987C19.437 21.4329 19.2658 21.5 19.0596 21.5H16.9404C16.7342 21.5 16.563 21.4329 16.4267 21.2987C16.2904 21.1646 16.2222 20.996 16.2222 20.793V20.1875H10.8889V23.5869C10.8889 23.721 10.9458 23.8444 11.0596 23.957C11.1733 24.0696 11.2987 24.1256 11.4356 24.125H24.5644C24.7007 24.125 24.8261 24.069 24.9404 23.957C25.0548 23.845 25.1117 23.7213 25.1111 23.586V20.1875ZM17.1111 20.625H18.8889V18.875H17.1111V20.625ZM10.8889 19.3125H16.2222V18.707C16.2222 18.504 16.2904 18.3354 16.4267 18.2012C16.563 18.0671 16.7342 18 16.9404 18H19.0596C19.2658 18 19.437 18.0671 19.5733 18.2012C19.7096 18.3354 19.7778 18.504 19.7778 18.707V19.3125H25.1111V15.039C25.1111 14.9043 25.0542 14.7806 24.9404 14.668C24.8267 14.5554 24.7013 14.4994 24.5644 14.5H11.4356C11.2993 14.5 11.1739 14.556 11.0596 14.668C10.9452 14.78 10.8883 14.9037 10.8889 15.039V19.3125Z" fill="#D4A850"/>
</svg>
