<svg width="16" height="14" viewBox="0 0 16 14" fill="none" xmlns="http://www.w3.org/2000/svg">
<path d="M0.0944 7.69911C0.159434 8.21728 0.403171 8.69311 0.780149 9.03784C1.15713 9.38258 1.6416 9.57268 2.1432 9.57268C2.6448 9.57268 3.12927 9.38258 3.50625 9.03784C3.88323 8.69311 4.12697 8.21728 4.192 7.69911H0.0944ZM11.2582 12.0328C11.2584 12.0766 11.2502 12.12 11.2342 12.1605C11.2182 12.201 11.1947 12.2379 11.1651 12.2689C11.1354 12.3 11.1002 12.3246 11.0614 12.3415C11.0226 12.3584 10.9809 12.3671 10.9389 12.3672H4.96896C4.7936 12.3672 4.64896 12.2171 4.64896 12.0328C4.64955 11.9448 4.68353 11.8606 4.74347 11.7985C4.80342 11.7365 4.88448 11.7017 4.96896 11.7017H10.9386C11.1152 11.7017 11.2582 11.8497 11.2582 12.0328ZM4.68384 12.5375H11.2237V13.5H4.68384V12.5375ZM11.808 7.69911C11.8728 8.21754 12.1164 8.69371 12.4933 9.03882C12.8703 9.38393 13.3548 9.57441 13.8566 9.57473C14.3585 9.57488 14.8432 9.38454 15.2201 9.03932C15.597 8.6941 15.8402 8.21765 15.9043 7.69911H11.808ZM15.7917 7.02934L14.1139 4.62163H15.0109C15.2291 4.62163 15.4048 4.43527 15.4048 4.2049C15.4048 3.97654 15.2288 3.79217 15.0109 3.79217H10.2595C10.1186 3.38736 9.8777 3.0284 9.56119 2.75144C9.24468 2.47449 8.86371 2.28932 8.45664 2.2146V0.915398C8.45664 0.684363 8.27872 0.500001 8.05824 0.500001L8.02112 0.504335L7.984 0.500001C7.93165 0.499869 7.87979 0.51053 7.83141 0.531371C7.78303 0.552212 7.73909 0.582821 7.70212 0.621434C7.66514 0.660047 7.63587 0.7059 7.61598 0.756352C7.59609 0.806804 7.58599 0.860858 7.58624 0.915398V2.21393C7.17929 2.28876 6.79845 2.47398 6.48206 2.75093C6.16567 3.02788 5.9249 3.38678 5.784 3.79151H1.03168C0.81504 3.79151 0.6384 3.97587 0.6384 4.20424C0.6384 4.43494 0.81504 4.62097 1.03168 4.62097H1.88768L0.2096 7.02867H0V7.47341H4.28736V7.02867H4.0768L2.39936 4.62163H6.29344C6.29344 4.52762 6.30336 4.43527 6.3168 4.34693C6.33056 4.30525 6.33984 4.26291 6.33984 4.21924C6.41211 3.90257 6.56662 3.61273 6.78647 3.38146C7.00631 3.15018 7.283 2.9864 7.58624 2.90804V7.47441H7.5696C7.53536 9.192 6.75104 10.6899 5.58752 11.5317H10.456C9.29216 10.6899 8.50848 9.192 8.47232 7.47441H8.45696V2.90804C8.76014 2.98645 9.03676 3.15026 9.25655 3.38153C9.47633 3.6128 9.6308 3.90261 9.70304 4.21924C9.70475 4.2628 9.71275 4.30536 9.72704 4.34693C9.73984 4.43561 9.74784 4.52762 9.74784 4.62163H13.6013L11.9232 7.02934H11.7139V7.47407H16V7.02934H15.7917ZM1.9728 7.02934H0.6336L1.9728 5.10738V7.02934ZM2.31552 7.02934V5.10738L3.65472 7.02934H2.31552ZM13.6858 7.02934H12.3459L13.6858 5.10738V7.02934ZM14.0269 7.02934V5.10738L15.3677 7.02934H14.0269ZM2.54112 3.21275C2.53818 3.32058 2.49501 3.42296 2.42076 3.49815C2.34652 3.57333 2.24706 3.6154 2.14352 3.6154C2.03998 3.6154 1.94052 3.57333 1.86628 3.49815C1.79203 3.42296 1.74886 3.32058 1.74592 3.21275C1.74592 2.98405 1.92448 2.79735 2.14432 2.79735C2.3632 2.79702 2.54112 2.98405 2.54112 3.21275ZM14.2544 3.19075C14.2544 3.42112 14.0765 3.60381 13.857 3.60381C13.8048 3.60416 13.753 3.59373 13.7047 3.57311C13.6564 3.55249 13.6125 3.52209 13.5755 3.48368C13.5386 3.44526 13.5093 3.39959 13.4894 3.34931C13.4694 3.29903 13.4593 3.24514 13.4595 3.19075C13.4574 3.13497 13.4661 3.07932 13.4851 3.02713C13.5041 2.97495 13.533 2.9273 13.5701 2.88704C13.6072 2.84679 13.6518 2.81476 13.7011 2.79289C13.7504 2.77101 13.8034 2.75973 13.857 2.75973C13.9105 2.75973 13.9636 2.77101 14.0129 2.79289C14.0621 2.81476 14.1067 2.84679 14.1438 2.88704C14.1809 2.9273 14.2098 2.97495 14.2289 3.02713C14.2479 3.07932 14.2565 3.13497 14.2544 3.19075Z" fill="#D4A850"/>
</svg>
