<svg width="18" height="22" viewBox="0 0 18 22" fill="none" xmlns="http://www.w3.org/2000/svg">
<path d="M16.0009 8.61986C16.0009 11.2 14.7308 13.1851 12.7987 14.4922C12.3487 14.7962 12.1237 14.9482 12.0127 15.1223C11.9027 15.2943 11.8637 15.5223 11.7887 15.9763L11.7287 16.3293C11.5966 17.1274 11.5296 17.5264 11.2496 17.7634C10.9696 18.0004 10.5656 18.0004 9.75653 18.0004H7.14438C6.33533 18.0004 5.9313 18.0004 5.65128 17.7634C5.37127 17.5264 5.30526 17.1274 5.17125 16.3293L5.11325 15.9763C5.03725 15.5233 5.00024 15.2963 4.89024 15.1243C4.78023 14.9522 4.55422 14.7982 4.10319 14.4902C2.19207 13.1831 1 11.199 1 8.61986C1 4.4126 4.3582 0.999394 8.50046 0.999394C9.00436 0.99886 9.507 1.04979 10.0005 1.1514" stroke="#D4A850" stroke-linecap="round" stroke-linejoin="round"/>
<path d="M10.4993 18.0004V19.0005C10.4993 19.9435 10.4993 20.4146 10.2062 20.7076C9.91323 21.0006 9.4422 21.0006 8.49915 21.0006C7.55609 21.0006 7.08506 21.0006 6.79204 20.7076C6.49902 20.4146 6.49902 19.9435 6.49902 19.0005V18.0004M13.4995 0.99939L13.7575 1.69643C14.0955 2.61049 14.2645 3.06752 14.5975 3.40054C14.9315 3.73456 15.3886 3.90357 16.3026 4.24159L16.9997 4.4996L16.3026 4.75762C15.3886 5.09564 14.9315 5.26465 14.5985 5.59767C14.2645 5.93169 14.0955 6.38872 13.7575 7.30278L13.4995 7.99982L13.2414 7.30278C12.9034 6.38872 12.7344 5.93169 12.4014 5.59867C12.0674 5.26465 11.6103 5.09564 10.6963 4.75762L9.99924 4.4996L10.6963 4.24159C11.6103 3.90357 12.0674 3.73456 12.4004 3.40154C12.7344 3.06752 12.9034 2.61049 13.2414 1.69643L13.4995 0.99939Z" stroke="#D4A850" stroke-linecap="round" stroke-linejoin="round"/>
</svg>
