<svg width="16" height="16" viewBox="0 0 16 16" fill="none" xmlns="http://www.w3.org/2000/svg">
<path d="M2.47162 0C1.11223 0 0 1.11171 0 2.47046V12.9699C0 14.3286 1.11223 15.4403 2.47162 15.4403H7.53101V15.3242L7.83996 14.2051H2.47162C1.79192 14.2051 1.23581 13.6493 1.23581 12.9699V2.47046C1.23581 1.79108 1.79192 1.23523 2.47162 1.23523H6.37244C6.80497 1.35875 6.79694 1.9146 6.79694 2.47046V4.3233C6.79694 4.69387 7.0441 4.94091 7.41485 4.94091H9.26856C9.88646 4.94091 10.5044 4.94091 10.5044 5.55853V10.4994L11.7402 9.26421V4.94091C11.7402 4.26154 11.1297 3.63651 10.0792 2.58595C9.89388 2.46243 9.76288 2.28517 9.57751 2.16165C9.45393 1.97636 9.27597 1.84481 9.15239 1.65953C8.10257 0.610203 7.47664 0 6.79694 0H2.47162ZM14.4243 8.70465C14.2544 8.70465 14.0845 8.77382 13.9609 8.89735L13.2268 9.63107L15.0806 11.4839L15.8146 10.7502C16.0618 10.5031 16.0618 10.1326 15.8146 9.82377L14.8878 8.89735C14.7646 8.77472 14.5982 8.7055 14.4243 8.70465ZM12.5509 10.2487L9.63559 13.3368C9.5738 13.3368 9.51943 13.4096 9.51943 13.4714L8.84344 15.6911C8.78165 15.7529 8.83973 15.8801 8.90152 15.9425C8.96331 16.0048 9.01336 15.9999 9.07515 15.9999H9.15301L11.3731 15.3249C11.4349 15.3249 11.4275 15.3094 11.4893 15.2477L14.5207 12.2368L12.5509 10.2487ZM9.88646 13.6456L10.8133 13.8383L11.0067 14.8227L9.77091 15.1315L9.51943 14.8808L9.88646 13.6456Z" fill="#D4A850"/>
</svg>
