<svg width="36" height="36" viewBox="0 0 36 36" fill="none" xmlns="http://www.w3.org/2000/svg">
<rect width="36" height="36" rx="18" fill="#D4A850" fill-opacity="0.2"/>
<path d="M23.6372 12.3628C22.8982 11.6166 22.0191 11.0237 21.0503 10.6182C20.0815 10.2127 19.0421 10.0026 17.9919 10C16.9416 9.99744 15.9013 10.2024 14.9305 10.6031C13.9597 11.0038 13.0776 11.5924 12.335 12.335C11.5924 13.0776 11.0038 13.9597 10.6031 14.9305C10.2024 15.9013 9.99744 16.9416 10 17.9919C10.0026 19.0421 10.2127 20.0815 10.6182 21.0503C11.0237 22.0191 11.6166 22.8982 12.3628 23.6372C13.1018 24.3834 13.9809 24.9763 14.9497 25.3818C15.9185 25.7873 16.9579 25.9974 18.0081 26C19.0584 26.0026 20.0987 25.7976 21.0695 25.3969C22.0403 24.9962 22.9224 24.4076 23.665 23.665C24.4076 22.9224 24.9962 22.0403 25.3969 21.0695C25.7976 20.0987 26.0026 19.0584 26 18.0081C25.9974 16.9579 25.7873 15.9185 25.3818 14.9497C24.9763 13.9809 24.3834 13.1018 23.6372 12.3628ZM11.1666 18C11.1664 17.3952 11.2466 16.7931 11.4051 16.2094C11.6663 16.7718 12.0457 17.2576 12.3038 17.8345C12.6372 18.5762 13.5327 18.3705 13.9281 19.0204C14.279 19.5973 13.9043 20.3269 14.1669 20.9305C14.3577 21.3686 14.8075 21.4644 15.1179 21.7847C15.435 22.1078 15.4282 22.5506 15.4766 22.972C15.5312 23.4671 15.6198 23.9579 15.7418 24.4408C15.7418 24.4444 15.7418 24.4483 15.7446 24.4518C13.0814 23.5165 11.1666 20.9778 11.1666 18ZM18 24.8334C17.6184 24.8333 17.2374 24.8014 16.8611 24.738C16.865 24.6415 16.8668 24.5515 16.8764 24.4888C16.9629 23.923 17.2462 23.3695 17.6284 22.946C18.0061 22.5282 18.5235 22.2456 18.8424 21.7715C19.1549 21.3088 19.2485 20.686 19.1197 20.1454C18.93 19.3467 17.8448 19.0802 17.2597 18.647C16.9234 18.3979 16.6241 18.0128 16.1824 17.9815C15.9788 17.9673 15.8083 18.011 15.6065 17.9591C15.4215 17.911 15.2763 17.8114 15.0791 17.8374C14.7107 17.8858 14.4783 18.2794 14.0826 18.226C13.7071 18.1758 13.3202 17.7363 13.2348 17.3786C13.1252 16.9188 13.4889 16.7696 13.8786 16.7287C14.0413 16.7116 14.2239 16.6931 14.3801 16.7529C14.5858 16.8291 14.683 17.0305 14.8677 17.1323C15.214 17.3224 15.2841 17.0188 15.2311 16.7113C15.1517 16.2507 15.0592 16.0632 15.4699 15.7461C15.7546 15.5275 15.998 15.3695 15.9525 14.977C15.9254 14.7463 15.7991 14.642 15.9169 14.4125C16.0062 14.2377 16.2514 14.0801 16.4112 13.9758C16.8237 13.7067 18.1783 13.7267 17.6249 12.9736C17.4622 12.7526 17.1622 12.3575 16.8775 12.3034C16.5216 12.2361 16.3636 12.6333 16.1155 12.8084C15.8592 12.9896 15.3603 13.1953 15.1037 12.9152C14.7584 12.5383 15.3325 12.4148 15.4596 12.1514C15.5183 12.0286 15.4596 11.8582 15.3606 11.6977C15.489 11.6436 15.6195 11.5934 15.7521 11.5471C15.8352 11.6085 15.9338 11.6455 16.0368 11.6539C16.2749 11.6695 16.4995 11.5407 16.7074 11.703C16.938 11.8809 17.1042 12.1059 17.4103 12.1614C17.7064 12.2151 18.0199 12.0425 18.0932 11.7393C18.1377 11.5549 18.0932 11.3603 18.0505 11.1698C19.3816 11.1775 20.6811 11.5761 21.7875 12.3162C21.7164 12.2892 21.6313 12.2924 21.5263 12.3411C21.3103 12.4415 21.0042 12.697 20.9789 12.9504C20.9501 13.238 21.3743 13.2786 21.5758 13.2786C21.8783 13.2786 22.1847 13.1433 22.0872 12.7938C22.0449 12.6422 21.9872 12.4846 21.8943 12.3892C22.1176 12.5441 22.3315 12.7121 22.5349 12.8924C22.5317 12.8956 22.5285 12.8985 22.5253 12.902C22.3203 13.1156 22.0822 13.2846 21.942 13.5444C21.8431 13.7274 21.7317 13.8142 21.5313 13.8615C21.421 13.8875 21.295 13.8971 21.2024 13.9712C20.9448 14.174 21.0914 14.6616 21.3355 14.8079C21.6441 14.9926 22.1018 14.9058 22.3346 14.642C22.5164 14.4356 22.6236 14.0772 22.9506 14.0776C23.0946 14.0773 23.233 14.1337 23.3357 14.2345C23.471 14.3748 23.4443 14.5057 23.4731 14.6808C23.524 14.9919 23.7984 14.8232 23.9653 14.6662C24.087 14.8828 24.1968 15.1058 24.2942 15.3343C24.1105 15.5987 23.9646 15.887 23.5229 15.5788C23.2585 15.3941 23.0958 15.1261 22.7638 15.0428C22.4737 14.9716 22.1765 15.0456 21.89 15.0951C21.5644 15.1517 21.1782 15.1766 20.9312 15.4233C20.6924 15.661 20.5661 15.9792 20.312 16.218C19.8204 16.6807 19.613 17.1857 19.9311 17.8398C20.2372 18.4687 20.8775 18.81 21.5683 18.7652C22.247 18.72 22.952 18.3264 22.9325 19.3126C22.9254 19.6617 22.9983 19.9034 23.1054 20.2276C23.2047 20.5266 23.198 20.8163 23.2208 21.1248C23.2424 21.4862 23.2989 21.8446 23.3895 22.195C22.7515 23.0164 21.9343 23.6811 21.0003 24.1383C20.0662 24.5956 19.04 24.8333 18 24.8334Z" fill="#D4A850"/>
</svg>
