<svg width="36" height="36" viewBox="0 0 36 36" fill="none" xmlns="http://www.w3.org/2000/svg">
<rect width="36" height="36" rx="18" fill="#D4A850" fill-opacity="0.2"/>
<path d="M22.0001 17.0439C22.0001 16.7671 22.0001 16.6287 22.0417 16.5055C22.1625 16.1471 22.4817 16.0087 22.8017 15.8631C23.1601 15.6991 23.3393 15.6175 23.5176 15.6031C23.7192 15.5871 23.9216 15.6303 24.0944 15.7271C24.3232 15.8551 24.4832 16.0999 24.6464 16.2983C25.4008 17.2151 25.7784 17.6735 25.916 18.1783C26.028 18.5862 26.028 19.0134 25.916 19.4206C25.7152 20.1582 25.0792 20.7758 24.608 21.3486C24.3672 21.6406 24.2464 21.787 24.0944 21.8726C23.9187 21.9701 23.7179 22.0132 23.5176 21.9966C23.3393 21.9822 23.1601 21.9006 22.8009 21.7366C22.4809 21.591 22.1625 21.4526 22.0417 21.0942C22.0001 20.971 22.0001 20.8326 22.0001 20.5558V17.0439ZM14.0002 17.0439C14.0002 16.6951 13.9906 16.3823 13.709 16.1375C13.6066 16.0487 13.4706 15.9871 13.1995 15.8631C12.8403 15.6999 12.6611 15.6175 12.4827 15.6031C11.9491 15.5599 11.6619 15.9247 11.3547 16.2991C10.5995 17.2151 10.2219 17.6735 10.0835 18.1791C9.97216 18.5857 9.97216 19.0148 10.0835 19.4214C10.2851 20.1582 10.9219 20.7766 11.3923 21.3486C11.6891 21.7086 11.9731 22.0374 12.4827 21.9966C12.6611 21.9822 12.8403 21.9006 13.1995 21.7366C13.4714 21.6134 13.6066 21.551 13.709 21.4622C13.9906 21.2174 14.0002 20.9046 14.0002 20.5566V17.0439Z" stroke="#D4A850" stroke-width="1.5" stroke-linecap="round" stroke-linejoin="round"/>
<path d="M12.3984 15.5997C12.3984 12.9486 14.9056 10.7998 17.9983 10.7998C21.0911 10.7998 23.5982 12.9486 23.5982 15.5997M23.5982 21.9996V22.6396C23.5982 24.0531 22.1662 25.1995 20.3983 25.1995H18.7983" stroke="#D4A850" stroke-width="1.5" stroke-linecap="round" stroke-linejoin="round"/>
</svg>
