<svg width="36" height="36" viewBox="0 0 36 36" fill="none" xmlns="http://www.w3.org/2000/svg">
<rect width="36" height="36" rx="18" fill="#D4A850" fill-opacity="0.2"/>
<path d="M18.5598 26.82C18.3966 26.9372 18.2007 27.0003 17.9998 27.0003C17.7988 27.0003 17.603 26.9372 17.4398 26.82C12.6108 23.378 7.48578 16.298 12.6668 11.182C14.0891 9.78285 16.0046 8.99912 17.9998 9C19.9998 9 21.9188 9.785 23.3328 11.181C28.5138 16.297 23.3888 23.376 18.5598 26.82Z" stroke="#D4A850" stroke-width="1.5" stroke-linecap="round" stroke-linejoin="round"/>
<path d="M18 18C18.5304 18 19.0391 17.7893 19.4142 17.4142C19.7893 17.0391 20 16.5304 20 16C20 15.4696 19.7893 14.9609 19.4142 14.5858C19.0391 14.2107 18.5304 14 18 14C17.4696 14 16.9609 14.2107 16.5858 14.5858C16.2107 14.9609 16 15.4696 16 16C16 16.5304 16.2107 17.0391 16.5858 17.4142C16.9609 17.7893 17.4696 18 18 18Z" stroke="#D4A850" stroke-width="1.5" stroke-linecap="round" stroke-linejoin="round"/>
</svg>
