<svg width="30" height="23" viewBox="0 0 30 23" fill="none" xmlns="http://www.w3.org/2000/svg">
<path d="M27.5 0H2.5C1.1375 0.0511111 0.05 1.16278 0 2.55556V20.4444C0.05 21.8372 1.1375 22.9489 2.5 23H27.5C28.8625 22.9489 29.95 21.8372 30 20.4444V2.55556C29.977 1.88527 29.7062 1.24883 29.2423 0.77457C28.7783 0.300313 28.1557 0.0235181 27.5 0ZM27.5 20.4444H2.5V2.55556H27.5V20.4444ZM17.5 17.8889V16.2917C17.5 14.1706 13.325 13.0972 11.25 13.0972C9.175 13.0972 5 14.1706 5 16.2917V17.8889H17.5ZM11.25 5.11111C10.4212 5.11111 9.62634 5.44767 9.04029 6.04674C8.45424 6.64582 8.125 7.45834 8.125 8.30556C8.125 8.72506 8.20583 9.14045 8.36288 9.52802C8.51992 9.91558 8.75011 10.2677 9.04029 10.5644C9.62634 11.1634 10.4212 11.5 11.25 11.5C11.6604 11.5 12.0667 11.4174 12.4459 11.2568C12.825 11.0963 13.1695 10.861 13.4597 10.5644C13.7499 10.2677 13.9801 9.91558 14.1371 9.52802C14.2942 9.14045 14.375 8.72506 14.375 8.30556C14.375 7.88605 14.2942 7.47066 14.1371 7.08309C13.9801 6.69553 13.7499 6.34337 13.4597 6.04674C13.1695 5.75011 12.825 5.51481 12.4459 5.35427C12.0667 5.19374 11.6604 5.11111 11.25 5.11111ZM17.5 5.11111V6.38889H25V5.11111H17.5ZM17.5 7.66667V8.94444H25V7.66667H17.5ZM17.5 10.2222V11.5H22.5V10.2222H17.5Z" fill="black"/>
<path d="M27.5 0H2.5C1.1375 0.0511111 0.05 1.16278 0 2.55556V20.4444C0.05 21.8372 1.1375 22.9489 2.5 23H27.5C28.8625 22.9489 29.95 21.8372 30 20.4444V2.55556C29.977 1.88527 29.7062 1.24883 29.2423 0.77457C28.7783 0.300313 28.1557 0.0235181 27.5 0ZM27.5 20.4444H2.5V2.55556H27.5V20.4444ZM17.5 17.8889V16.2917C17.5 14.1706 13.325 13.0972 11.25 13.0972C9.175 13.0972 5 14.1706 5 16.2917V17.8889H17.5ZM11.25 5.11111C10.4212 5.11111 9.62634 5.44767 9.04029 6.04674C8.45424 6.64582 8.125 7.45834 8.125 8.30556C8.125 8.72506 8.20583 9.14045 8.36288 9.52802C8.51992 9.91558 8.75011 10.2677 9.04029 10.5644C9.62634 11.1634 10.4212 11.5 11.25 11.5C11.6604 11.5 12.0667 11.4174 12.4459 11.2568C12.825 11.0963 13.1695 10.861 13.4597 10.5644C13.7499 10.2677 13.9801 9.91558 14.1371 9.52802C14.2942 9.14045 14.375 8.72506 14.375 8.30556C14.375 7.88605 14.2942 7.47066 14.1371 7.08309C13.9801 6.69553 13.7499 6.34337 13.4597 6.04674C13.1695 5.75011 12.825 5.51481 12.4459 5.35427C12.0667 5.19374 11.6604 5.11111 11.25 5.11111ZM17.5 5.11111V6.38889H25V5.11111H17.5ZM17.5 7.66667V8.94444H25V7.66667H17.5ZM17.5 10.2222V11.5H22.5V10.2222H17.5Z" fill="url(#paint0_linear_1647_33401)"/>
<defs>
<linearGradient id="paint0_linear_1647_33401" x1="0" y1="11.5" x2="30" y2="11.5" gradientUnits="userSpaceOnUse">
<stop stop-color="#D4A850"/>
<stop offset="1" stop-color="#F6C259"/>
</linearGradient>
</defs>
</svg>
