<svg width="36" height="36" viewBox="0 0 36 36" fill="none" xmlns="http://www.w3.org/2000/svg">
<rect width="36" height="36" rx="18" fill="#D4A850" fill-opacity="0.2"/>
<path d="M22.6667 10H25.3333C25.5101 10 25.6797 10.0803 25.8047 10.2232C25.9298 10.366 26 10.5598 26 10.7619V12.381C26 12.9619 25.7981 13.5191 25.4386 13.9299C25.0792 14.3406 24.5917 14.5714 24.0833 14.5714H22.6667M22.6667 10H11.3333V19.1429C11.3333 20.1532 11.6845 21.1222 12.3096 21.8366C12.9348 22.551 13.7826 22.9524 14.6667 22.9524H19.3333C19.7711 22.9524 20.2045 22.8538 20.6089 22.6624C21.0134 22.471 21.3808 22.1903 21.6904 21.8366C21.9999 21.4829 22.2454 21.0629 22.4129 20.6007C22.5804 20.1385 22.6667 19.6431 22.6667 19.1429V10ZM10 26H24" stroke="#D4A850" stroke-linecap="round" stroke-linejoin="round"/>
</svg>
