<svg width="36" height="36" viewBox="0 0 36 36" fill="none" xmlns="http://www.w3.org/2000/svg">
<rect width="36" height="36" rx="18" fill="#D4A850" fill-opacity="0.2"/>
<path d="M12.8235 14.6296C12.8235 14.055 13.0466 13.5039 13.4438 13.0976C13.8409 12.6912 14.3795 12.463 14.9412 12.463C15.5028 12.463 16.0414 12.6912 16.4386 13.0976C16.8357 13.5039 17.0588 14.055 17.0588 14.6296C17.0588 15.2043 16.8357 15.7554 16.4386 16.1617C16.0414 16.568 15.5028 16.7963 14.9412 16.7963C14.3795 16.7963 13.8409 16.568 13.4438 16.1617C13.0466 15.7554 12.8235 15.2043 12.8235 14.6296ZM14.9412 11.5C14.1299 11.5 13.3519 11.8297 12.7783 12.4166C12.2046 13.0036 11.8824 13.7996 11.8824 14.6296C11.8824 15.4597 12.2046 16.2557 12.7783 16.8426C13.3519 17.4295 14.1299 17.7593 14.9412 17.7593C15.7524 17.7593 16.5305 17.4295 17.1041 16.8426C17.6777 16.2557 18 15.4597 18 14.6296C18 13.7996 17.6777 13.0036 17.1041 12.4166C16.5305 11.8297 15.7524 11.5 14.9412 11.5ZM20.2936 22.7137C20.8 22.9256 21.4372 23.0556 22.2353 23.0556C24.0056 23.0556 24.9845 22.4123 25.5002 21.6747C25.7699 21.2879 25.9387 20.8371 25.9906 20.365C25.9952 20.3212 25.9983 20.2772 26 20.2331V20.1667C26 19.977 25.9635 19.7892 25.8925 19.6139C25.8216 19.4387 25.7176 19.2794 25.5865 19.1453C25.4554 19.0112 25.2998 18.9048 25.1285 18.8322C24.9572 18.7596 24.7736 18.7222 24.5882 18.7222H20.2306C20.4565 19.0015 20.6259 19.3279 20.7247 19.6852H24.5882C24.713 19.6852 24.8327 19.7359 24.921 19.8262C25.0092 19.9165 25.0588 20.039 25.0588 20.1667V20.2187L25.0541 20.2668C25.0188 20.5723 24.9087 20.8638 24.7341 21.1142C24.4264 21.5562 23.7581 22.0926 22.2353 22.0926C21.5464 22.0926 21.0325 21.9828 20.6475 21.822C20.5704 22.0916 20.4584 22.3959 20.2936 22.7137ZM10 20.6481C10 20.1374 10.1983 19.6475 10.5513 19.2863C10.9043 18.9251 11.3831 18.7222 11.8824 18.7222H18C18.4992 18.7222 18.978 18.9251 19.331 19.2863C19.684 19.6475 19.8824 20.1374 19.8824 20.6481V20.729L19.8805 20.7676L19.8711 20.8976C19.8044 21.5216 19.5877 22.1191 19.2405 22.6367C18.5807 23.6141 17.3064 24.5 14.9412 24.5C12.576 24.5 11.3016 23.6141 10.6419 22.6376C10.2945 22.1198 10.0778 21.522 10.0113 20.8976C10.0059 20.8415 10.0022 20.7853 10 20.729V20.6481ZM10.9412 20.7059V20.7233L10.9478 20.8032C10.9988 21.2648 11.1598 21.7065 11.4165 22.0897C11.8748 22.7676 12.8358 23.537 14.9412 23.537C17.0466 23.537 18.0075 22.7676 18.4659 22.0897C18.7226 21.7065 18.8835 21.2648 18.9346 20.8032C18.9384 20.7666 18.9402 20.74 18.9402 20.7233L18.9412 20.7069V20.6481C18.9412 20.3928 18.842 20.1478 18.6655 19.9672C18.489 19.7866 18.2496 19.6852 18 19.6852H11.8824C11.6327 19.6852 11.3933 19.7866 11.2168 19.9672C11.0403 20.1478 10.9412 20.3928 10.9412 20.6481V20.7059ZM20.8235 15.3519C20.8235 14.9688 20.9723 14.6014 21.237 14.3305C21.5018 14.0596 21.8609 13.9074 22.2353 13.9074C22.6097 13.9074 22.9688 14.0596 23.2336 14.3305C23.4983 14.6014 23.6471 14.9688 23.6471 15.3519C23.6471 15.7349 23.4983 16.1023 23.2336 16.3732C22.9688 16.6441 22.6097 16.7963 22.2353 16.7963C21.8609 16.7963 21.5018 16.6441 21.237 16.3732C20.9723 16.1023 20.8235 15.7349 20.8235 15.3519ZM22.2353 12.9444C21.6113 12.9444 21.0128 13.1981 20.5715 13.6496C20.1303 14.101 19.8824 14.7134 19.8824 15.3519C19.8824 15.9903 20.1303 16.6027 20.5715 17.0541C21.0128 17.5056 21.6113 17.7593 22.2353 17.7593C22.8593 17.7593 23.4578 17.5056 23.8991 17.0541C24.3403 16.6027 24.5882 15.9903 24.5882 15.3519C24.5882 14.7134 24.3403 14.101 23.8991 13.6496C23.4578 13.1981 22.8593 12.9444 22.2353 12.9444Z" fill="#D4A850"/>
</svg>
