<svg width="36" height="36" viewBox="0 0 36 36" fill="none" xmlns="http://www.w3.org/2000/svg">
<rect width="36" height="36" rx="18" fill="#D4A850" fill-opacity="0.2"/>
<g clip-path="url(#clip0_1_6476)">
<path d="M18.1562 15.5469L11.4766 22.2344C11.3255 22.3854 11.2083 22.5599 11.125 22.7578C11.0417 22.9557 11 23.1641 11 23.3828C11 23.6016 11.0417 23.8099 11.125 24.0078C11.2083 24.2057 11.3255 24.3776 11.4766 24.5234C11.6276 24.6693 11.7995 24.7839 11.9922 24.8672C12.1849 24.9505 12.3932 24.9948 12.6172 25C12.8307 25 13.0365 24.9583 13.2344 24.875C13.4323 24.7917 13.6094 24.6745 13.7656 24.5234L18 20.2969V21.7109L14.4766 25.2344C14.2266 25.4844 13.9427 25.6745 13.625 25.8047C13.3073 25.9349 12.9714 26 12.6172 26C12.2578 26 11.9219 25.9323 11.6094 25.7969C11.2969 25.6615 11.0182 25.4714 10.7734 25.2266C10.5286 24.9818 10.3411 24.7057 10.2109 24.3984C10.0807 24.0911 10.0104 23.7526 10 23.3828C10 23.0234 10.0651 22.6875 10.1953 22.375C10.3255 22.0625 10.5156 21.7786 10.7656 21.5234L17.0625 15.2266C17.0417 15.1068 17.026 14.987 17.0156 14.8672C17.0052 14.7474 17 14.625 17 14.5C17 14.0885 17.0521 13.6927 17.1562 13.3125C17.2604 12.9323 17.4115 12.5729 17.6094 12.2344C17.8073 11.8958 18.0443 11.5911 18.3203 11.3203C18.5964 11.0495 18.901 10.8151 19.2344 10.6172C19.5677 10.4193 19.9245 10.2682 20.3047 10.1641C20.6849 10.0599 21.0833 10.0052 21.5 10C21.7812 10 22.0391 10.0208 22.2734 10.0625C22.5078 10.1042 22.737 10.1667 22.9609 10.25C23.1849 10.3333 23.401 10.4323 23.6094 10.5469C23.8177 10.6615 24.0417 10.7865 24.2812 10.9219L21.2031 14L22 14.7969L25.0781 11.7188C25.2031 11.9375 25.3203 12.1562 25.4297 12.375C25.5391 12.5938 25.638 12.8203 25.7266 13.0547C25.8151 13.2891 25.8854 13.5234 25.9375 13.7578C25.9896 13.9922 26.0156 14.2422 26.0156 14.5078C26.0156 14.8516 25.974 15.1927 25.8906 15.5312C25.8073 15.8698 25.6849 16.1927 25.5234 16.5C25.362 16.8073 25.1745 17.0964 24.9609 17.3672C24.7474 17.638 24.5 17.8776 24.2188 18.0859C23.9792 17.9922 23.7344 17.9193 23.4844 17.8672C23.2344 17.8151 22.9792 17.7839 22.7188 17.7734C23.0573 17.6484 23.3672 17.4766 23.6484 17.2578C23.9297 17.0391 24.1693 16.7891 24.3672 16.5078C24.5651 16.2266 24.7214 15.9167 24.8359 15.5781C24.9505 15.2396 25.0052 14.888 25 14.5234C25 14.1328 24.9375 13.7578 24.8125 13.3984L22 16.2031L19.7969 14L22.6016 11.1875C22.2474 11.0625 21.8802 11 21.5 11C21.0156 11 20.5625 11.0911 20.1406 11.2734C19.7188 11.4557 19.349 11.7057 19.0312 12.0234C18.7135 12.3411 18.4635 12.7109 18.2812 13.1328C18.099 13.5547 18.0052 14.0104 18 14.5C18 14.6771 18.0156 14.8516 18.0469 15.0234C18.0781 15.1953 18.1146 15.3698 18.1562 15.5469ZM22.5 19C22.9844 19 23.4375 19.0911 23.8594 19.2734C24.2812 19.4557 24.6536 19.7057 24.9766 20.0234C25.2995 20.3411 25.5495 20.7109 25.7266 21.1328C25.9036 21.5547 25.9948 22.0104 26 22.5C26 22.9844 25.9089 23.4375 25.7266 23.8594C25.5443 24.2812 25.2943 24.6536 24.9766 24.9766C24.6589 25.2995 24.2891 25.5495 23.8672 25.7266C23.4453 25.9036 22.9896 25.9948 22.5 26C22.0156 26 21.5625 25.9089 21.1406 25.7266C20.7188 25.5443 20.3464 25.2943 20.0234 24.9766C19.7005 24.6589 19.4505 24.2891 19.2734 23.8672C19.0964 23.4453 19.0052 22.9896 19 22.5C19 22.0156 19.0911 21.5625 19.2734 21.1406C19.4557 20.7188 19.7057 20.3464 20.0234 20.0234C20.3411 19.7005 20.7109 19.4505 21.1328 19.2734C21.5547 19.0964 22.0104 19.0052 22.5 19ZM20 22.5C20 22.8438 20.0651 23.1667 20.1953 23.4688C20.3255 23.7708 20.5026 24.0365 20.7266 24.2656C20.9505 24.4948 21.2161 24.6745 21.5234 24.8047C21.8307 24.9349 22.1562 25 22.5 25C22.7448 25 22.9844 24.9661 23.2188 24.8984C23.4531 24.8307 23.6719 24.7266 23.875 24.5859L20.4141 21.125C20.2786 21.3281 20.1771 21.5469 20.1094 21.7812C20.0417 22.0156 20.0052 22.2552 20 22.5ZM24.5859 23.875C24.7214 23.6719 24.8229 23.4531 24.8906 23.2188C24.9583 22.9844 24.9948 22.7448 25 22.5C25 22.1562 24.9349 21.8333 24.8047 21.5312C24.6745 21.2292 24.4948 20.9661 24.2656 20.7422C24.0365 20.5182 23.7708 20.3385 23.4688 20.2031C23.1667 20.0677 22.8438 20 22.5 20C22.2552 20 22.0156 20.0339 21.7812 20.1016C21.5469 20.1693 21.3281 20.2734 21.125 20.4141L24.5859 23.875Z" fill="#D4A850"/>
</g>
<defs>
<clipPath id="clip0_1_6476">
<rect width="16" height="16" fill="white" transform="translate(10 10)"/>
</clipPath>
</defs>
</svg>
