<svg width="36" height="36" viewBox="0 0 36 36" fill="none" xmlns="http://www.w3.org/2000/svg">
<rect width="36" height="36" rx="18" fill="#D4A850" fill-opacity="0.2"/>
<path d="M22.8 13.8C23.6487 13.8 24.4626 14.1319 25.0627 14.7226C25.6629 15.3134 26 16.1146 26 16.95V25.35C26 26.1854 25.6629 26.9866 25.0627 27.5774C24.4626 28.1681 23.6487 28.5 22.8 28.5H13.2C12.3513 28.5 11.5374 28.1681 10.9373 27.5774C10.3371 26.9866 10 26.1854 10 25.35V16.95C10 16.1146 10.3371 15.3134 10.9373 14.7226C11.5374 14.1319 12.3513 13.8 13.2 13.8V12.225C13.2 9.6 15.3333 7.5 18 7.5C20.6667 7.5 22.8 9.6 22.8 12.225V13.8ZM13.2 14.85C12.6342 14.85 12.0916 15.0712 11.6915 15.4651C11.2914 15.8589 11.0667 16.393 11.0667 16.95V25.35C11.0667 25.907 11.2914 26.4411 11.6915 26.8349C12.0916 27.2287 12.6342 27.45 13.2 27.45H22.8C23.3658 27.45 23.9084 27.2287 24.3085 26.8349C24.7086 26.4411 24.9333 25.907 24.9333 25.35V16.95C24.9333 16.393 24.7086 15.8589 24.3085 15.4651C23.9084 15.0712 23.3658 14.85 22.8 14.85H13.2ZM21.7333 13.8V12.225C21.7333 11.2503 21.34 10.3156 20.6399 9.62638C19.9397 8.93719 18.9901 8.55 18 8.55C17.0099 8.55 16.0603 8.93719 15.3601 9.62638C14.66 10.3156 14.2667 11.2503 14.2667 12.225V13.8H21.7333ZM18 20.1C17.5757 20.1 17.1687 20.2659 16.8686 20.5613C16.5686 20.8567 16.4 21.2573 16.4 21.675C16.4 22.0927 16.5686 22.4933 16.8686 22.7887C17.1687 23.0841 17.5757 23.25 18 23.25C18.4243 23.25 18.8313 23.0841 19.1314 22.7887C19.4314 22.4933 19.6 22.0927 19.6 21.675C19.6 21.2573 19.4314 20.8567 19.1314 20.5613C18.8313 20.2659 18.4243 20.1 18 20.1ZM18 19.05C18.7072 19.05 19.3855 19.3266 19.8856 19.8188C20.3857 20.3111 20.6667 20.9788 20.6667 21.675C20.6667 22.3712 20.3857 23.0389 19.8856 23.5312C19.3855 24.0234 18.7072 24.3 18 24.3C17.2928 24.3 16.6145 24.0234 16.1144 23.5312C15.6143 23.0389 15.3333 22.3712 15.3333 21.675C15.3333 20.9788 15.6143 20.3111 16.1144 19.8188C16.6145 19.3266 17.2928 19.05 18 19.05Z" fill="#D4A850"/>
</svg>
