<svg width="30" height="31" viewBox="0 0 30 31" fill="none" xmlns="http://www.w3.org/2000/svg">
<path d="M6.66667 9.58948L9.39167 6.87937L6.66667 4.16591L3.97333 6.87937L6.66667 9.58948ZM2.69333 18.472C1.92556 18.472 1.285 18.2129 0.771667 17.6946C0.258333 17.1763 0.00111111 16.531 0 15.7586V2.71179C0 1.93939 0.257222 1.29461 0.771667 0.777435C1.28611 0.260264 1.92611 0.00111942 2.69167 0H27.3083C28.075 0 28.715 0.259145 29.2283 0.777435C29.7417 1.29572 29.9989 1.94051 30 2.71179V15.7586C30 16.531 29.7428 17.1763 29.2283 17.6946C28.7139 18.2129 28.0733 18.4715 27.3067 18.4704H22.19C22.2411 18.1905 22.275 17.9107 22.2917 17.6308C22.3083 17.351 22.3106 17.0711 22.2983 16.7912H27.3067C27.5633 16.7912 27.7989 16.6838 28.0133 16.4689C28.2278 16.2539 28.3344 16.0172 28.3333 15.7586V2.71179C28.3333 2.45432 28.2267 2.21756 28.0133 2.00152C27.8 1.78547 27.5644 1.67801 27.3067 1.67912H2.69333C2.43667 1.67912 2.20111 1.78659 1.98667 2.00152C1.77222 2.21644 1.66556 2.45376 1.66667 2.71347V15.7586C1.66667 16.016 1.77333 16.2528 1.98667 16.4689C2.2 16.6849 2.435 16.7924 2.69167 16.7912H7.70167C7.68833 17.0711 7.69056 17.351 7.70833 17.6308C7.72611 17.9107 7.76056 18.1905 7.81167 18.4704L2.69333 18.472ZM22.4967 7.55774C22.9578 7.55774 23.3517 7.3943 23.6783 7.06744C24.005 6.74057 24.1678 6.34541 24.1667 5.88197C24.1656 5.41853 24.0039 5.02114 23.6817 4.68979C23.3594 4.35845 22.9667 4.19445 22.5033 4.19781C22.04 4.20117 21.6461 4.36404 21.3217 4.68644C20.9972 5.00883 20.8344 5.40454 20.8333 5.87358C20.8322 6.34261 20.9939 6.73945 21.3183 7.06408C21.6428 7.38871 22.0356 7.55438 22.4967 7.55774ZM5 31V28.6358C5 27.9798 5.18 27.3664 5.54 26.7955C5.9 26.2246 6.38556 25.8048 6.99667 25.5361C8.27222 24.9574 9.57667 24.5175 10.91 24.2163C12.2433 23.9152 13.6067 23.7652 15 23.7663C16.3933 23.7674 17.7567 23.9174 19.09 24.2163C20.4233 24.5152 21.7278 24.9551 23.0033 25.5361C23.6144 25.8048 24.1 26.2218 24.46 26.7871C24.82 27.3535 25 27.9664 25 28.6257V31H5ZM6.66667 29.3209H23.3333V28.6358C23.3333 28.3 23.2361 27.9921 23.0417 27.7123C22.8472 27.4324 22.5972 27.2225 22.2917 27.0826C21.125 26.5509 19.9306 26.1451 18.7083 25.8652C17.4861 25.5854 16.25 25.4455 15 25.4455C13.75 25.4455 12.5139 25.5854 11.2917 25.8652C10.0694 26.1451 8.875 26.5509 7.70833 27.0826C7.40278 27.2225 7.15278 27.4324 6.95833 27.7123C6.76389 27.9921 6.66667 28.3 6.66667 28.6358V29.3209ZM15 21.4407C13.8378 21.4407 12.8528 21.0338 12.045 20.22C11.2372 19.4073 10.8333 18.415 10.8333 17.2429C10.8333 16.0709 11.2372 15.0785 12.045 14.2658C12.8528 13.4531 13.8378 13.0462 15 13.0451C16.1622 13.044 17.1472 13.4509 17.955 14.2658C18.7628 15.0808 19.1667 16.0731 19.1667 17.2429C19.1667 18.4127 18.7628 19.4051 17.955 20.22C17.1472 21.035 16.1622 21.4419 15 21.4407ZM15 19.7616C15.6944 19.7616 16.285 19.517 16.7717 19.0278C17.2583 18.5387 17.5011 17.9437 17.5 17.2429C17.4989 16.5422 17.2561 15.9478 16.7717 15.4597C16.2872 14.9716 15.6967 14.7265 15 14.7242C14.3033 14.722 13.7133 14.9672 13.23 15.4597C12.7467 15.9522 12.5033 16.5467 12.5 17.2429C12.4967 17.9392 12.74 18.5342 13.23 19.0278C13.72 19.5215 14.31 19.7661 15 19.7616Z" fill="black"/>
<path d="M6.66667 9.58948L9.39167 6.87937L6.66667 4.16591L3.97333 6.87937L6.66667 9.58948ZM2.69333 18.472C1.92556 18.472 1.285 18.2129 0.771667 17.6946C0.258333 17.1763 0.00111111 16.531 0 15.7586V2.71179C0 1.93939 0.257222 1.29461 0.771667 0.777435C1.28611 0.260264 1.92611 0.00111942 2.69167 0H27.3083C28.075 0 28.715 0.259145 29.2283 0.777435C29.7417 1.29572 29.9989 1.94051 30 2.71179V15.7586C30 16.531 29.7428 17.1763 29.2283 17.6946C28.7139 18.2129 28.0733 18.4715 27.3067 18.4704H22.19C22.2411 18.1905 22.275 17.9107 22.2917 17.6308C22.3083 17.351 22.3106 17.0711 22.2983 16.7912H27.3067C27.5633 16.7912 27.7989 16.6838 28.0133 16.4689C28.2278 16.2539 28.3344 16.0172 28.3333 15.7586V2.71179C28.3333 2.45432 28.2267 2.21756 28.0133 2.00152C27.8 1.78547 27.5644 1.67801 27.3067 1.67912H2.69333C2.43667 1.67912 2.20111 1.78659 1.98667 2.00152C1.77222 2.21644 1.66556 2.45376 1.66667 2.71347V15.7586C1.66667 16.016 1.77333 16.2528 1.98667 16.4689C2.2 16.6849 2.435 16.7924 2.69167 16.7912H7.70167C7.68833 17.0711 7.69056 17.351 7.70833 17.6308C7.72611 17.9107 7.76056 18.1905 7.81167 18.4704L2.69333 18.472ZM22.4967 7.55774C22.9578 7.55774 23.3517 7.3943 23.6783 7.06744C24.005 6.74057 24.1678 6.34541 24.1667 5.88197C24.1656 5.41853 24.0039 5.02114 23.6817 4.68979C23.3594 4.35845 22.9667 4.19445 22.5033 4.19781C22.04 4.20117 21.6461 4.36404 21.3217 4.68644C20.9972 5.00883 20.8344 5.40454 20.8333 5.87358C20.8322 6.34261 20.9939 6.73945 21.3183 7.06408C21.6428 7.38871 22.0356 7.55438 22.4967 7.55774ZM5 31V28.6358C5 27.9798 5.18 27.3664 5.54 26.7955C5.9 26.2246 6.38556 25.8048 6.99667 25.5361C8.27222 24.9574 9.57667 24.5175 10.91 24.2163C12.2433 23.9152 13.6067 23.7652 15 23.7663C16.3933 23.7674 17.7567 23.9174 19.09 24.2163C20.4233 24.5152 21.7278 24.9551 23.0033 25.5361C23.6144 25.8048 24.1 26.2218 24.46 26.7871C24.82 27.3535 25 27.9664 25 28.6257V31H5ZM6.66667 29.3209H23.3333V28.6358C23.3333 28.3 23.2361 27.9921 23.0417 27.7123C22.8472 27.4324 22.5972 27.2225 22.2917 27.0826C21.125 26.5509 19.9306 26.1451 18.7083 25.8652C17.4861 25.5854 16.25 25.4455 15 25.4455C13.75 25.4455 12.5139 25.5854 11.2917 25.8652C10.0694 26.1451 8.875 26.5509 7.70833 27.0826C7.40278 27.2225 7.15278 27.4324 6.95833 27.7123C6.76389 27.9921 6.66667 28.3 6.66667 28.6358V29.3209ZM15 21.4407C13.8378 21.4407 12.8528 21.0338 12.045 20.22C11.2372 19.4073 10.8333 18.415 10.8333 17.2429C10.8333 16.0709 11.2372 15.0785 12.045 14.2658C12.8528 13.4531 13.8378 13.0462 15 13.0451C16.1622 13.044 17.1472 13.4509 17.955 14.2658C18.7628 15.0808 19.1667 16.0731 19.1667 17.2429C19.1667 18.4127 18.7628 19.4051 17.955 20.22C17.1472 21.035 16.1622 21.4419 15 21.4407ZM15 19.7616C15.6944 19.7616 16.285 19.517 16.7717 19.0278C17.2583 18.5387 17.5011 17.9437 17.5 17.2429C17.4989 16.5422 17.2561 15.9478 16.7717 15.4597C16.2872 14.9716 15.6967 14.7265 15 14.7242C14.3033 14.722 13.7133 14.9672 13.23 15.4597C12.7467 15.9522 12.5033 16.5467 12.5 17.2429C12.4967 17.9392 12.74 18.5342 13.23 19.0278C13.72 19.5215 14.31 19.7661 15 19.7616Z" fill="url(#paint0_linear_1647_33398)"/>
<defs>
<linearGradient id="paint0_linear_1647_33398" x1="0" y1="15.5" x2="30" y2="15.5" gradientUnits="userSpaceOnUse">
<stop stop-color="#D4A850"/>
<stop offset="1" stop-color="#C08000"/>
</linearGradient>
</defs>
</svg>
