<svg width="30" height="28" viewBox="0 0 30 28" fill="none" xmlns="http://www.w3.org/2000/svg">
<path d="M30 14C30 14.2652 29.8946 14.5196 29.7071 14.7071C29.5196 14.8946 29.2652 15 29 15H26.9163C26.6781 16.3973 25.9537 17.6654 24.8711 18.5803C23.7885 19.4952 22.4174 19.998 21 20H16V23H19C20.0609 23 21.0783 23.4214 21.8284 24.1716C22.5786 24.9217 23 25.9391 23 27C23 27.2652 22.8946 27.5196 22.7071 27.7071C22.5196 27.8946 22.2652 28 22 28C21.7348 28 21.4804 27.8946 21.2929 27.7071C21.1054 27.5196 21 27.2652 21 27C21 26.4696 20.7893 25.9609 20.4142 25.5858C20.0391 25.2107 19.5304 25 19 25H16V27C16 27.2652 15.8946 27.5196 15.7071 27.7071C15.5196 27.8946 15.2652 28 15 28C14.7348 28 14.4804 27.8946 14.2929 27.7071C14.1054 27.5196 14 27.2652 14 27V25H11C10.4696 25 9.96086 25.2107 9.58579 25.5858C9.21071 25.9609 9 26.4696 9 27C9 27.2652 8.89464 27.5196 8.70711 27.7071C8.51957 27.8946 8.26522 28 8 28C7.73478 28 7.48043 27.8946 7.29289 27.7071C7.10536 27.5196 7 27.2652 7 27C7 25.9391 7.42143 24.9217 8.17157 24.1716C8.92172 23.4214 9.93913 23 11 23H14V20H9C7.58259 19.998 6.21148 19.4952 5.1289 18.5803C4.04632 17.6654 3.32195 16.3973 3.08375 15H1C0.734784 15 0.48043 14.8946 0.292893 14.7071C0.105357 14.5196 0 14.2652 0 14C0 13.7348 0.105357 13.4804 0.292893 13.2929C0.48043 13.1054 0.734784 13 1 13H4C4.26522 13 4.51957 13.1054 4.70711 13.2929C4.89464 13.4804 5 13.7348 5 14C5 15.0609 5.42143 16.0783 6.17157 16.8284C6.92172 17.5786 7.93913 18 9 18H21C22.0609 18 23.0783 17.5786 23.8284 16.8284C24.5786 16.0783 25 15.0609 25 14C25 13.7348 25.1054 13.4804 25.2929 13.2929C25.4804 13.1054 25.7348 13 26 13H29C29.2652 13 29.5196 13.1054 29.7071 13.2929C29.8946 13.4804 30 13.7348 30 14ZM7.48875 15.31C7.30115 15.0936 7.16222 14.8394 7.08135 14.5647C7.00048 14.2899 6.97956 14.001 7.02 13.7175L8.735 1.7175C8.80498 1.24169 9.04324 0.806747 9.40654 0.491616C9.76983 0.176485 10.2341 0.00205917 10.715 0H19.285C19.7659 0.00205917 20.2302 0.176485 20.5935 0.491616C20.9568 0.806747 21.195 1.24169 21.265 1.7175L22.98 13.7175C23.0205 14.0011 22.9995 14.2902 22.9186 14.565C22.8376 14.8399 22.6986 15.0941 22.5108 15.3106C22.3231 15.527 22.091 15.7006 21.8304 15.8195C21.5697 15.9385 21.2865 16 21 16H9C8.71337 16 8.43008 15.9384 8.16934 15.8193C7.9086 15.7003 7.6765 15.5266 7.48875 15.31ZM9 14H21L19.285 2H10.7137L9 14Z" fill="#CA9327"/>
</svg>
