<svg width="32" height="33" viewBox="0 0 32 33" fill="none" xmlns="http://www.w3.org/2000/svg">
<path d="M6.86957 18.1489H25.1304M16 18.1489V32M8.82609 14.8511V8.91489H7.29739C6.42874 8.9149 5.58478 9.20722 4.89851 9.7458C4.21224 10.2844 3.72267 11.0386 3.50696 11.8896L1 21.7766V22.1064H10.1304V24.0851C10.1304 26.0638 10.1304 27.383 11.1087 29.3617C11.1087 29.3617 12.087 31.3404 13.3913 31.3404M23.1739 14.8511V8.91489H24.7026C25.5713 8.9149 26.4152 9.20722 27.1015 9.7458C27.7878 10.2844 28.2773 11.0386 28.493 11.8896L31 21.7766V22.1064H21.8696V24.0851C21.8696 26.0638 21.8696 27.383 20.8913 29.3617C20.8913 29.3617 19.913 31.3404 18.6087 31.3404M8.63043 6.2766C8.63043 6.2766 6.54348 4.95745 6.54348 3.30851C6.54348 2.69696 6.78369 2.11045 7.21127 1.67801C7.63886 1.24558 8.21879 1.00264 8.82348 1.00264C9.42817 1.00264 10.0081 1.24558 10.4357 1.67801C10.8633 2.11045 11.1035 2.69696 11.1035 3.30851C11.1035 4.95745 9.02174 6.2766 9.02174 6.2766H8.63043ZM23.3696 6.2766C23.3696 6.2766 25.4565 4.95745 25.4565 3.30851C25.4565 2.69626 25.216 2.10908 24.788 1.67615C24.3599 1.24322 23.7793 1 23.1739 1C21.9139 1 20.8965 2.03421 20.8965 3.30851C20.8965 4.95745 22.9783 6.2766 22.9783 6.2766H23.3696Z" stroke="white" stroke-width="2"/>
</svg>
