<svg width="30" height="29" viewBox="0 0 30 29" fill="none" xmlns="http://www.w3.org/2000/svg">
<path opacity="0.2" d="M21 15.4999H9.00003C8.85677 15.4999 8.71518 15.4692 8.58485 15.4097C8.45452 15.3502 8.33849 15.2634 8.24461 15.1552C8.15074 15.047 8.08121 14.9199 8.04074 14.7825C8.00026 14.645 7.98979 14.5005 8.01003 14.3587L9.72503 2.35869C9.75903 2.12035 9.87788 1.90229 10.0597 1.74453C10.2416 1.58678 10.4743 1.49993 10.715 1.49994H19.285C19.5258 1.49993 19.7584 1.58678 19.9403 1.74453C20.1222 1.90229 20.241 2.12035 20.275 2.35869L21.99 14.3587C22.0103 14.5005 21.9998 14.645 21.9593 14.7825C21.9188 14.9199 21.8493 15.047 21.7554 15.1552C21.6616 15.2634 21.5455 15.3502 21.4152 15.4097C21.2849 15.4692 21.1433 15.4999 21 15.4999Z" fill="white"/>
<path d="M30 14.5001C30 14.7653 29.8946 15.0196 29.7071 15.2072C29.5196 15.3947 29.2652 15.5001 29 15.5001H26.9163C26.6781 16.8973 25.9537 18.1654 24.8711 19.0803C23.7885 19.9953 22.4174 20.4981 21 20.5001H16V23.5001H19C20.0609 23.5001 21.0783 23.9215 21.8284 24.6716C22.5786 25.4218 23 26.4392 23 27.5001C23 27.7653 22.8946 28.0196 22.7071 28.2072C22.5196 28.3947 22.2652 28.5001 22 28.5001C21.7348 28.5001 21.4804 28.3947 21.2929 28.2072C21.1054 28.0196 21 27.7653 21 27.5001C21 26.9696 20.7893 26.4609 20.4142 26.0858C20.0391 25.7108 19.5304 25.5001 19 25.5001H16V27.5001C16 27.7653 15.8946 28.0196 15.7071 28.2072C15.5196 28.3947 15.2652 28.5001 15 28.5001C14.7348 28.5001 14.4804 28.3947 14.2929 28.2072C14.1054 28.0196 14 27.7653 14 27.5001V25.5001H11C10.4696 25.5001 9.96086 25.7108 9.58579 26.0858C9.21071 26.4609 9 26.9696 9 27.5001C9 27.7653 8.89464 28.0196 8.70711 28.2072C8.51957 28.3947 8.26522 28.5001 8 28.5001C7.73478 28.5001 7.48043 28.3947 7.29289 28.2072C7.10536 28.0196 7 27.7653 7 27.5001C7 26.4392 7.42143 25.4218 8.17157 24.6716C8.92172 23.9215 9.93913 23.5001 11 23.5001H14V20.5001H9C7.58259 20.4981 6.21148 19.9953 5.1289 19.0803C4.04632 18.1654 3.32195 16.8973 3.08375 15.5001H1C0.734784 15.5001 0.48043 15.3947 0.292893 15.2072C0.105357 15.0196 0 14.7653 0 14.5001C0 14.2348 0.105357 13.9805 0.292893 13.793C0.48043 13.6054 0.734784 13.5001 1 13.5001H4C4.26522 13.5001 4.51957 13.6054 4.70711 13.793C4.89464 13.9805 5 14.2348 5 14.5001C5 15.5609 5.42143 16.5783 6.17157 17.3285C6.92172 18.0786 7.93913 18.5001 9 18.5001H21C22.0609 18.5001 23.0783 18.0786 23.8284 17.3285C24.5786 16.5783 25 15.5609 25 14.5001C25 14.2348 25.1054 13.9805 25.2929 13.793C25.4804 13.6054 25.7348 13.5001 26 13.5001H29C29.2652 13.5001 29.5196 13.6054 29.7071 13.793C29.8946 13.9805 30 14.2348 30 14.5001ZM7.48875 15.8101C7.30115 15.5937 7.16222 15.3395 7.08135 15.0647C7.00047 14.79 6.97956 14.5011 7.02 14.2176L8.735 2.21756C8.80498 1.74175 9.04324 1.30681 9.40654 0.991677C9.76983 0.676546 10.2341 0.50212 10.715 0.500061H19.285C19.7659 0.50212 20.2302 0.676546 20.5935 0.991677C20.9568 1.30681 21.195 1.74175 21.265 2.21756L22.98 14.2176C23.0205 14.5012 22.9995 14.7902 22.9186 15.0651C22.8376 15.3399 22.6986 15.5942 22.5108 15.8106C22.3231 16.027 22.091 16.2006 21.8304 16.3196C21.5697 16.4385 21.2865 16.5001 21 16.5001H9C8.71337 16.5001 8.43008 16.4384 8.16934 16.3194C7.9086 16.2004 7.6765 16.0266 7.48875 15.8101ZM9 14.5001H21L19.285 2.50006H10.7137L9 14.5001Z" fill="white"/>
</svg>
